HIERARCHY
ROOT hips_JNT
{
  OFFSET 0.0 -0.948831 1.32574
  CHANNELS 6 Xposition Yposition Zposition Zrotation Xrotation Yrotation
  JOINT spine_JNT
  {
    OFFSET -0.0 4.130377 -0.008512
    CHANNELS 6 Xposition Yposition Zposition Zrotation Xrotation Yrotation
    JOINT spine1_JNT
    {
      OFFSET 0.0 10.693995 -0.005569
      CHANNELS 6 Xposition Yposition Zposition Zrotation Xrotation Yrotation
      JOINT spine2_JNT
      {
        OFFSET 0.0 10.15321 -0.012624
        CHANNELS 6 Xposition Yposition Zposition Zrotation Xrotation Yrotation
        JOINT l_shoulder_JNT
        {
          OFFSET 2.886656 12.539124 -0.534975
          CHANNELS 6 Xposition Yposition Zposition Zrotation Xrotation Yrotation
          JOINT l_arm_JNT
          {
            OFFSET 10.265332 4.1e-05 2.1e-05
            CHANNELS 6 Xposition Yposition Zposition Zrotation Xrotation Yrotation
            JOINT l_forearm_JNT
            {
              OFFSET 25.57288 -1.8e-05 7e-06
              CHANNELS 6 Xposition Yposition Zposition Zrotation Xrotation Yrotation
              JOINT l_hand_JNT
              {
                OFFSET 19.806801 -0.34569 0.001304
                CHANNELS 6 Xposition Yposition Zposition Zrotation Xrotation Yrotation
                JOINT l_handThumb1_JNT
                {
                  OFFSET 1.812945 -1.252032 3.615279
                  CHANNELS 6 Xposition Yposition Zposition Zrotation Xrotation Yrotation
                  JOINT l_handThumb2_JNT
                  {
                    OFFSET 2.639236 -0.023626 -0.053101
                    CHANNELS 6 Xposition Yposition Zposition Zrotation Xrotation Yrotation
                    JOINT l_handThumb3_JNT
                    {
                      OFFSET 2.817294 0.161943 -1.4e-05
                      CHANNELS 6 Xposition Yposition Zposition Zrotation Xrotation Yrotation
                      JOINT l_handThumb4_JNT
                      {
                        OFFSET 3.923262 -2e-06 -2e-05
                        CHANNELS 6 Xposition Yposition Zposition Zrotation Xrotation Yrotation
                        End Site
                        {
                          OFFSET 0 0 0
                        }
                      }
                    }
                  }
                }
                JOINT l_handIndex1_JNT
                {
                  OFFSET 8.246993 -0.097602 3.7486
                  CHANNELS 6 Xposition Yposition Zposition Zrotation Xrotation Yrotation
                  JOINT l_handIndex2_JNT
                  {
                    OFFSET 3.896266 0.286873 -7e-06
                    CHANNELS 6 Xposition Yposition Zposition Zrotation Xrotation Yrotation
                    JOINT l_handIndex3_JNT
                    {
                      OFFSET 2.318423 0.158307 -2e-06
                      CHANNELS 6 Xposition Yposition Zposition Zrotation Xrotation Yrotation
                      JOINT l_handIndex4_JNT
                      {
                        OFFSET 2.566021 -2.8e-05 1.3e-05
                        CHANNELS 6 Xposition Yposition Zposition Zrotation Xrotation Yrotation
                        End Site
                        {
                          OFFSET 0 0 0
                        }
                      }
                    }
                  }
                }
                JOINT l_handPinky1_JNT
                {
                  OFFSET 7.375721 -0.989719 -3.362721
                  CHANNELS 6 Xposition Yposition Zposition Zrotation Xrotation Yrotation
                  JOINT l_handPinky2_JNT
                  {
                    OFFSET 2.923455 0.065761 4e-06
                    CHANNELS 6 Xposition Yposition Zposition Zrotation Xrotation Yrotation
                    JOINT l_handPinky3_JNT
                    {
                      OFFSET 1.903048 -0.013625 2e-06
                      CHANNELS 6 Xposition Yposition Zposition Zrotation Xrotation Yrotation
                      JOINT l_handPinky4_JNT
                      {
                        OFFSET 2.825697 -4e-06 7e-06
                        CHANNELS 6 Xposition Yposition Zposition Zrotation Xrotation Yrotation
                        End Site
                        {
                          OFFSET 0 0 0
                        }
                      }
                    }
                  }
                }
                JOINT l_handRing1_JNT
                {
                  OFFSET 8.765368 -0.298583 -1.407509
                  CHANNELS 6 Xposition Yposition Zposition Zrotation Xrotation Yrotation
                  JOINT l_handRing2_JNT
                  {
                    OFFSET 3.670795 0.003695 3e-06
                    CHANNELS 6 Xposition Yposition Zposition Zrotation Xrotation Yrotation
                    JOINT l_handRing3_JNT
                    {
                      OFFSET 2.391654 0.005744 -0.0
                      CHANNELS 6 Xposition Yposition Zposition Zrotation Xrotation Yrotation
                      JOINT l_handRing4_JNT
                      {
                        OFFSET 2.882435 9e-06 -0.0
                        CHANNELS 6 Xposition Yposition Zposition Zrotation Xrotation Yrotation
                        End Site
                        {
                          OFFSET 0 0 0
                        }
                      }
                    }
                  }
                }
                JOINT l_handMiddle1_JNT
                {
                  OFFSET 9.042173 0.054553 1.280481
                  CHANNELS 6 Xposition Yposition Zposition Zrotation Xrotation Yrotation
                  JOINT l_handMiddle2_JNT
                  {
                    OFFSET 3.918026 0.055927 -2e-06
                    CHANNELS 6 Xposition Yposition Zposition Zrotation Xrotation Yrotation
                    JOINT l_handMiddle3_JNT
                    {
                      OFFSET 2.517175 0.019618 -2e-06
                      CHANNELS 6 Xposition Yposition Zposition Zrotation Xrotation Yrotation
                      JOINT l_handMiddle4_JNT
                      {
                        OFFSET 3.281315 -4e-06 6e-06
                        CHANNELS 6 Xposition Yposition Zposition Zrotation Xrotation Yrotation
                        End Site
                        {
                          OFFSET 0 0 0
                        }
                      }
                    }
                  }
                }
              }
            }
          }
        }
        JOINT r_shoulder_JNT
        {
          OFFSET -2.886765 12.539101 -0.53497
          CHANNELS 6 Xposition Yposition Zposition Zrotation Xrotation Yrotation
          JOINT r_arm_JNT
          {
            OFFSET -10.265315 -5.6e-05 -2.2e-05
            CHANNELS 6 Xposition Yposition Zposition Zrotation Xrotation Yrotation
            JOINT r_forearm_JNT
            {
              OFFSET -25.572863 -1e-06 -1e-05
              CHANNELS 6 Xposition Yposition Zposition Zrotation Xrotation Yrotation
              JOINT r_hand_JNT
              {
                OFFSET -19.806995 -0.345992 0.000439
                CHANNELS 6 Xposition Yposition Zposition Zrotation Xrotation Yrotation
                JOINT r_handThumb1_JNT
                {
                  OFFSET -1.817488 -1.260979 3.617093
                  CHANNELS 6 Xposition Yposition Zposition Zrotation Xrotation Yrotation
                  JOINT r_handThumb2_JNT
                  {
                    OFFSET -2.639243 -0.023613 -0.053149
                    CHANNELS 6 Xposition Yposition Zposition Zrotation Xrotation Yrotation
                    JOINT r_handThumb3_JNT
                    {
                      OFFSET -2.69898 -0.823877 3.2e-05
                      CHANNELS 6 Xposition Yposition Zposition Zrotation Xrotation Yrotation
                      JOINT r_handThumb4_JNT
                      {
                        OFFSET -3.875298 -0.61178 -2.5e-05
                        CHANNELS 6 Xposition Yposition Zposition Zrotation Xrotation Yrotation
                        End Site
                        {
                          OFFSET 0 0 0
                        }
                      }
                    }
                  }
                }
                JOINT r_handRing1_JNT
                {
                  OFFSET -8.770375 -0.316069 -1.406742
                  CHANNELS 6 Xposition Yposition Zposition Zrotation Xrotation Yrotation
                  JOINT r_handRing2_JNT
                  {
                    OFFSET -3.670815 0.00367 1.4e-05
                    CHANNELS 6 Xposition Yposition Zposition Zrotation Xrotation Yrotation
                    JOINT r_handRing3_JNT
                    {
                      OFFSET -2.391656 0.005687 -4e-06
                      CHANNELS 6 Xposition Yposition Zposition Zrotation Xrotation Yrotation
                      JOINT r_handRing4_JNT
                      {
                        OFFSET -2.882458 2.6e-05 4e-06
                        CHANNELS 6 Xposition Yposition Zposition Zrotation Xrotation Yrotation
                        End Site
                        {
                          OFFSET 0 0 0
                        }
                      }
                    }
                  }
                }
                JOINT r_handPinky1_JNT
                {
                  OFFSET -7.380617 -1.009365 -3.361093
                  CHANNELS 6 Xposition Yposition Zposition Zrotation Xrotation Yrotation
                  JOINT r_handPinky2_JNT
                  {
                    OFFSET -2.923381 0.065775 -1.6e-05
                    CHANNELS 6 Xposition Yposition Zposition Zrotation Xrotation Yrotation
                    JOINT r_handPinky3_JNT
                    {
                      OFFSET -1.903114 -0.013699 2e-06
                      CHANNELS 6 Xposition Yposition Zposition Zrotation Xrotation Yrotation
                      JOINT r_handPinky4_JNT
                      {
                        OFFSET -2.82564 6.6e-05 2.2e-05
                        CHANNELS 6 Xposition Yposition Zposition Zrotation Xrotation Yrotation
                        End Site
                        {
                          OFFSET 0 0 0
                        }
                      }
                    }
                  }
                }
                JOINT r_handMiddle1_JNT
                {
                  OFFSET -9.04719 0.04041 1.28081
                  CHANNELS 6 Xposition Yposition Zposition Zrotation Xrotation Yrotation
                  JOINT r_handMiddle2_JNT
                  {
                    OFFSET -3.918018 0.058123 -0.000248
                    CHANNELS 6 Xposition Yposition Zposition Zrotation Xrotation Yrotation
                    JOINT r_handMiddle3_JNT
                    {
                      OFFSET -2.517177 0.020923 -0.000345
                      CHANNELS 6 Xposition Yposition Zposition Zrotation Xrotation Yrotation
                      JOINT r_handMiddle4_JNT
                      {
                        OFFSET -3.281001 6.3e-05 -1e-06
                        CHANNELS 6 Xposition Yposition Zposition Zrotation Xrotation Yrotation
                        End Site
                        {
                          OFFSET 0 0 0
                        }
                      }
                    }
                  }
                }
                JOINT r_handIndex1_JNT
                {
                  OFFSET -8.25189 -0.10834 3.749102
                  CHANNELS 6 Xposition Yposition Zposition Zrotation Xrotation Yrotation
                  JOINT r_handIndex2_JNT
                  {
                    OFFSET -3.896148 0.288499 -0.000465
                    CHANNELS 6 Xposition Yposition Zposition Zrotation Xrotation Yrotation
                    JOINT r_handIndex3_JNT
                    {
                      OFFSET -2.318387 0.159238 -0.000487
                      CHANNELS 6 Xposition Yposition Zposition Zrotation Xrotation Yrotation
                      JOINT r_handIndex4_JNT
                      {
                        OFFSET -2.565998 -9e-06 -2e-06
                        CHANNELS 6 Xposition Yposition Zposition Zrotation Xrotation Yrotation
                        End Site
                        {
                          OFFSET 0 0 0
                        }
                      }
                    }
                  }
                }
              }
            }
          }
        }
        JOINT neck_JNT
        {
          OFFSET 0.0 17.065636 0.263756
          CHANNELS 6 Xposition Yposition Zposition Zrotation Xrotation Yrotation
          JOINT head_JNT
          {
            OFFSET -2e-06 8.137567 0.007748
            CHANNELS 6 Xposition Yposition Zposition Zrotation Xrotation Yrotation
            JOINT headtop_End_JNT
            {
              OFFSET 1e-06 29.371323 3.603611
              CHANNELS 6 Xposition Yposition Zposition Zrotation Xrotation Yrotation
              End Site
              {
                OFFSET 0 0 0
              }
            }
            JOINT l_eye_LOC
            {
              OFFSET 5.1001 12.306631 9.664177
              CHANNELS 6 Xposition Yposition Zposition Zrotation Xrotation Yrotation
              JOINT l_eye_JNT
              {
                OFFSET 0.0 -0.0 0.0
                CHANNELS 6 Xposition Yposition Zposition Zrotation Xrotation Yrotation
                End Site
                {
                  OFFSET 0 0 0
                }
              }
            }
            JOINT r_eye_LOC
            {
              OFFSET -5.099901 12.306608 9.664177
              CHANNELS 6 Xposition Yposition Zposition Zrotation Xrotation Yrotation
              JOINT r_eye_JNT
              {
                OFFSET -0.0 2e-06 0.0
                CHANNELS 6 Xposition Yposition Zposition Zrotation Xrotation Yrotation
                End Site
                {
                  OFFSET 0 0 0
                }
              }
            }
          }
        }
      }
    }
  }
  JOINT r_upleg_JNT
  {
    OFFSET -7.515902 1.7e-05 8e-06
    CHANNELS 6 Xposition Yposition Zposition Zrotation Xrotation Yrotation
    JOINT r_leg_JNT
    {
      OFFSET -0.724048 -37.736351 0.184438
      CHANNELS 6 Xposition Yposition Zposition Zrotation Xrotation Yrotation
      JOINT r_foot_JNT
      {
        OFFSET 0.000135 -34.575272 -2.7e-05
        CHANNELS 6 Xposition Yposition Zposition Zrotation Xrotation Yrotation
        JOINT r_toebase_JNT
        {
          OFFSET 6e-06 -6.104936 11.161947
          CHANNELS 6 Xposition Yposition Zposition Zrotation Xrotation Yrotation
          End Site
          {
            OFFSET 0 0 0
          }
        }
      }
    }
  }
  JOINT l_upleg_JNT
  {
    OFFSET 7.515905 2e-06 -7e-06
    CHANNELS 6 Xposition Yposition Zposition Zrotation Xrotation Yrotation
    JOINT l_leg_JNT
    {
      OFFSET 0.000241 -37.743698 0.013164
      CHANNELS 6 Xposition Yposition Zposition Zrotation Xrotation Yrotation
      JOINT l_foot_JNT
      {
        OFFSET 5.9e-05 -34.575218 -3.6e-05
        CHANNELS 6 Xposition Yposition Zposition Zrotation Xrotation Yrotation
        JOINT l_toebase_JNT
        {
          OFFSET 1e-06 -6.104953 11.161938
          CHANNELS 6 Xposition Yposition Zposition Zrotation Xrotation Yrotation
          End Site
          {
            OFFSET 0 0 0
          }
        }
      }
    }
  }
}
MOTION
Frames:	2
Frame Time:	0.0333333
0.0 -0.948831 1.32574 -0.403395846185 1.50972513002 1.27414844986 -0.0 4.130377 -0.008512 -0.0393097250503 -0.7280080242 -0.0246284666089 0.0 10.693995 -0.005569 -0.0801717553053 -1.30232814013 -0.0474502750674 0.0 10.15321 -0.012624 -0.0848854272181 -5.26892025676 -0.0447126010844 2.886656 12.539124 -0.534975 -4.06291072104 2.15591455086 2.3867571725 10.265332 4.1e-05 2.1e-05 -64.485157709 27.1426222205 -0.836855642983 25.57288 -1.8e-05 7e-06 0.0150968475312 0.017072925264 -41.506945 19.806801 -0.34569 0.001304 10.4246468311 6.75769679483 2.55762945642 1.812945 -1.252032 3.615279 25.5425035607 52.9031908495 -56.8579252672 2.639236 -0.023626 -0.053101 -11.1436595903 9.91761552597 -0.704872457111 2.817294 0.161943 -1.4e-05 -7.16613985941 -0.694133386149 10.4115334477 3.923262 -2e-06 -2e-05 -9.15850631832e-06 2.35369134316e-06 4.84873853566e-05 8.246993 -0.097602 3.7486 -18.5086950597 7.22008221586 -0.430618575544 3.896266 0.286873 -7e-06 -24.442049694 0.794240050409 -3.92760329744 2.318423 0.158307 -2e-06 -12.7590222003 0.613837920357 -3.9461914012 2.566021 -2.8e-05 1.3e-05 -2.3976863532e-05 -3.4819218854e-05 2.61745640273e-06 7.375721 -0.989719 -3.362721 -16.0697470897 -22.9446583184 2.67306951107 2.923455 0.065761 4e-06 -18.4968524492 -0.628186622271 5.15592510289 1.903048 -0.013625 2e-06 -14.4486900467 -0.616917036139 5.16454769485 2.825697 -4e-06 7e-06 -4.6435072934e-05 2.26846386795e-05 1.52246020662e-05 8.765368 -0.298583 -1.407509 -19.8024381068 -13.3859559169 -0.474431945878 3.670795 0.003695 3e-06 -15.4781923904 -0.398612277759 2.53131582895 2.391654 0.005744 -0.0 -9.52588235308 -0.0995365380396 2.27390584936 2.882435 9e-06 -0.0 -1.28131742196e-05 2.1806679797e-05 1.20513068396e-05 9.042173 0.054553 1.280481 -16.7545234085 -3.73702793644 -0.0732645072698 3.918026 0.055927 -2e-06 -25.9048360733 0.0980816092742 -0.683315265068 2.517175 0.019618 -2e-06 -8.49261448511 0.0396839559491 -0.694309043535 3.281315 -4e-06 6e-06 7.89932267783e-12 -2.30003442994e-05 1.96778728423e-05 -2.886765 12.539101 -0.53497 3.5848044519 2.57467769576 -1.38444327336 -10.265315 -5.6e-05 -2.2e-05 58.6171250761 33.1075372186 9.64637985594 -25.572863 -1e-06 -1e-05 -0.0142622003331 0.0180443198526 38.3186057611 -19.806995 -0.345992 0.000439 -11.4719199821 9.83145524531 -0.323368368491 -1.817488 -1.260979 3.617093 -25.3865941504 52.8011530394 56.6897116924 -2.639243 -0.023613 -0.053149 -9.35744218605 9.05800900003 4.10894242102 -2.69898 -0.823877 3.2e-05 18.5858536614 0.887286984944 -10.4205683052 -3.875298 -0.61178 -2.5e-05 5.45015724414e-05 -4.66628334834e-05 -2.16296721192e-05 -8.770375 -0.316069 -1.406742 19.8163256597 -13.4254058102 0.500500216475 -3.670815 0.00367 1.4e-05 15.4815974506 -0.395249722364 -2.50805341271 -2.391656 0.005687 -4e-06 9.52923931007 -0.0993368980162 -2.25319414404 -2.882458 2.6e-05 4e-06 1.7487773676e-05 3.71429086954e-05 -1.47320188262e-05 -7.380617 -1.009365 -3.361093 16.0628969129 -22.9453913215 -2.65302730291 -2.923381 0.065775 -1.6e-05 18.5076650064 -0.623688370228 -5.12583616913 -1.903114 -0.013699 2e-06 14.4600567506 -0.612784798559 -5.13436339977 -2.82564 6.6e-05 2.2e-05 7.97366016334e-05 4.06171166105e-05 9.42300448515e-06 -9.04719 0.04041 1.28081 16.8062809021 -3.83619170137 0.108572331909 -3.918018 0.058123 -0.000248 25.9046191803 0.098234219176 0.68861001617 -2.517177 0.020923 -0.000345 8.4923779827 0.038999012888 0.69948462955 -3.281001 6.3e-05 -1e-06 8.06798147728e-06 -2.93192488243e-06 -4.53762149846e-05 -8.25189 -0.10834 3.749102 18.551088334 7.07041371179 0.470903322235 -3.896148 0.288499 -0.000465 24.4443071163 0.791272252261 3.9203559122 -2.318387 0.159238 -0.000487 12.7611677888 0.611476822981 3.93889530255 -2.565998 -9e-06 -2e-06 7.3718601989e-06 1.51962649397e-05 -3.08864073304e-05 0.0 17.065636 0.263756 1.46688938324 17.1603888192 -2.59539885796 -2e-06 8.137567 0.007748 -0.0212341530675 -15.1162594086 0.247550310667 1e-06 29.371323 3.603611 -2.11243300823e-07 5.2964015007 2.28846022158e-06 5.1001 12.306631 9.664177 -0.00025564253 0.58690121 -0.0 0.0 -0.0 0.0 -0.128812879149 5.17308880192 1.42834443357 -5.099901 12.306608 9.664177 -0.00025564253 0.58690121 -0.0 -0.0 2e-06 0.0 -0.128812879149 5.17308880192 1.42834443357 -7.515902 1.7e-05 8e-06 -9.64438290427 -12.3563739349 -11.3898268535 -0.724048 -37.736351 0.184438 -3.52347352091 22.1869494482 -4.40713348816 0.000135 -34.575272 -2.7e-05 11.9603602126 -8.43191246029 -7.94981759219 6e-06 -6.104936 11.161947 0.798122050294 0.278380839923 -0.00507924507622 7.515905 2e-06 -7e-06 11.8702043867 -12.9624654101 12.0105645396 0.000241 -37.743698 0.013164 3.08170827761 22.009986583 5.52232104233 5.9e-05 -34.575218 -3.6e-05 -12.7273573157 -6.98333853653 9.0258266234 1e-06 -6.104953 11.161938 -0.278535084317 0.797965526418 -0.00115654122402 
-0.049902 -1.015657 1.141052 -0.0717405946898 1.47073878973 0.941412310771 -0.0 4.130377 -0.008512 -0.169023585476 -0.53430342878 0.0758140075826 0.0 10.693994 -0.005568 -0.294555739415 -0.925304715038 0.164446504394 0.0 10.153213 -0.012623 -0.234035784678 -4.89634410344 0.190215410141 2.886657 12.53914 -0.534975 -3.93321981679 2.14942461073 2.5133621312 10.265326 4.7e-05 2e-05 -62.8040326666 28.3988053834 -2.27668042666 25.572895 -9e-06 3e-06 0.0156912106392 0.0165283239081 -43.5337117304 19.806799 -0.345708 0.000452 17.6324536483 6.42728885275 1.38859133487 1.812946 -1.252032 3.615282 25.5425045391 52.9031864218 -56.8579312764 2.639237 -0.023624 -0.053102 -11.1436704276 9.9176202989 -0.704870107527 2.8173 0.161935 -1.3e-05 -7.16613997464 -0.694142813879 10.4115382375 3.92326 5e-06 -1.9e-05 -5.9103286266e-06 4.36802838521e-06 4.83032708871e-05 8.247006 -0.09761 3.748597 -18.5086926141 7.22008698035 -0.430622575472 3.896266 0.286876 -5e-06 -24.4420751248 0.794227607321 -3.92761902274 2.318424 0.158305 -4e-06 -12.7590177993 0.613833524476 -3.94618543714 2.566025 -2.5e-05 9e-06 -1.75066802933e-05 -2.94685432891e-05 6.10740607954e-06 7.375728 -0.989724 -3.362725 -16.0697609715 -22.9446566778 2.67305368298 2.923449 0.065765 9e-06 -18.496826339 -0.628180930453 5.15591794427 1.903056 -0.013625 -2e-06 -14.4486844268 -0.616926056017 5.16455104169 2.825699 -5e-06 6e-06 -5.36322525363e-05 1.64329012478e-05 1.67669186339e-05 8.765373 -0.298587 -1.407509 -19.8024432437 -13.3859520914 -0.474437789556 3.670797 0.003697 1e-06 -15.4782689724 -0.398604146511 2.53132607869 2.391655 0.005744 -1e-06 -9.52588634083 -0.0995320859527 2.27390799482 2.882434 9e-06 -1e-06 -1.31256154185e-05 1.33330013341e-05 1.47516966535e-05 9.042181 0.054546 1.280479 -16.7545368639 -3.73703651938 -0.0732659340799 3.918027 0.055932 -5e-06 -25.9048360053 0.0980866454136 -0.68331991434 2.517175 0.019617 2e-06 -8.49260790369 0.0396766959679 -0.694299923961 3.281314 -3e-06 6e-06 6.6004168284e-12 -1.69304403244e-05 2.23370461754e-05 -2.886767 12.539105 -0.534968 2.91627894015 2.50737582145 -0.965863805566 -10.265325 -4.6e-05 -2.1e-05 58.4404021647 32.9895218115 9.73651426642 -25.572868 1e-06 -8e-06 -0.0148553218901 0.017559249671 40.2274154535 -19.807016 -0.345981 6.5e-05 -17.0926551208 11.2884421636 1.83815122977 -1.81749 -1.260981 3.617091 -25.386593927 52.8011513441 56.6897281233 -2.639244 -0.023615 -0.053151 -9.35743633243 9.05800614096 4.10894287116 -2.698981 -0.823876 3.1e-05 18.585850593 0.887290544564 -10.4205740381 -3.8753 -0.611781 -2.4e-05 6.57141061329e-05 -4.39187242591e-05 -1.92191091628e-05 -8.770376 -0.316067 -1.406741 19.816326978 -13.425406769 0.500497644742 -3.670817 0.003671 1.4e-05 15.4815735495 -0.395249003831 -2.50806652583 -2.391656 0.005688 -4e-06 9.52925654752 -0.0993355064854 -2.25318460719 -2.882458 2.4e-05 5e-06 1.30253814787e-05 3.9524078602e-05 -1.89750153368e-05 -7.380622 -1.009369 -3.361095 16.0629087657 -22.9453895109 -2.65302157057 -2.923375 0.065775 -1.3e-05 18.5076768932 -0.623683143667 -5.12583854836 -1.903114 -0.013698 1e-06 14.4600401427 -0.612798381799 -5.13437533444 -2.82564 6.7e-05 2.2e-05 9.05534822617e-05 4.5510376367e-05 1.06688266897e-05 -9.047196 0.040406 1.280809 16.8062906444 -3.83619098573 0.108575423285 -3.918015 0.058125 -0.00024 25.9046381985 0.098237705635 0.688617824462 -2.517177 0.020926 -0.000347 8.49238661085 0.0389950308063 0.699489815122 -3.281 6.1e-05 3e-06 9.17363285473e-06 -1.46767943079e-05 -5.32836020284e-05 -8.25189 -0.108341 3.749104 18.551091578 7.07040943101 0.470892747064 -3.896149 0.2885 -0.000466 24.444306565 0.791279861772 3.92035806537 -2.31839 0.159238 -0.000488 12.7611745027 0.611476825609 3.93889172607 -2.565997 -6e-06 0.0 1.84606436791e-05 2.65447233687e-05 -2.43060821958e-05 2e-06 17.065636 0.263753 0.907295167141 15.8647028399 -2.44722577361 -0.0 8.13757 0.007787 0.474401987887 -14.6431004637 0.189402281883 1e-06 29.371323 3.603611 -2.11243300823e-07 5.2964015007 2.28846022158e-06 5.1001 12.306631 9.664177 -0.00025564253 0.58690121 -0.0 0.0 -0.0 0.0 -0.128812879149 5.17308880192 1.42834443357 -5.099901 12.306608 9.664177 -0.00025564253 0.58690121 -0.0 -0.0 2e-06 0.0 -0.128812879149 5.17308880192 1.42834443357 -7.515939 1.6e-05 7e-06 -10.0483650843 -13.0077138886 -11.7858575895 -0.724038 -37.736404 0.184453 -3.64919361813 23.1031465732 -3.68709370516 0.000125 -34.575287 -3.8e-05 11.8366090721 -8.73731456665 -7.89702728222 1.1e-05 -6.104949 11.161966 0.798114381182 0.278267889119 -0.00508540160807 7.515943 3e-06 -7e-06 11.735974447 -13.0087672863 12.1075951919 0.000241 -37.74366 0.013127 2.83810023433 22.1455189136 5.77761600295 5.2e-05 -34.57526 -5.4e-05 -12.6618935253 -6.93950214426 9.03251750119 -0.0 -6.104965 11.161958 -0.278540991551 0.797939598397 -0.0011604011082 
